<?xml version="1.0" encoding="UTF-8"?> <svg xmlns="http://www.w3.org/2000/svg" xmlns:xlink="http://www.w3.org/1999/xlink" id="Layer_1" data-name="Layer 1" viewBox="0 0 196.11 46"><defs><style>.cls-1{fill:#01a066;}.cls-2{fill:url(#linear-gradient);}</style><linearGradient id="linear-gradient" x1="4.46" y1="17.15" x2="36.8" y2="33.55" gradientUnits="userSpaceOnUse"><stop offset="0.24" stop-color="#ea7d1e"></stop><stop offset="0.27" stop-color="#ddc407"></stop><stop offset="0.31" stop-color="#b2bd1a"></stop><stop offset="0.38" stop-color="#6cb238"></stop><stop offset="0.46" stop-color="#0ea260"></stop><stop offset="0.47" stop-color="#01a066"></stop></linearGradient></defs><path class="cls-1" d="M41,28.62l.82-1.41a.53.53,0,0,1,.78-.16A7.55,7.55,0,0,0,46,28.47a1.91,1.91,0,0,0,2.08-1.76c0-1.17-1-2-2.9-2.75-2.15-.86-4.3-2.23-4.3-4.93,0-2,1.51-4.39,5.14-4.39a8,8,0,0,1,4.57,1.53.57.57,0,0,1,.14.76l-.87,1.3a.59.59,0,0,1-.8.27,7.58,7.58,0,0,0-3.17-1.25,1.81,1.81,0,0,0-2,1.6c0,1.07.84,1.8,2.69,2.56,2.22.89,4.78,2.21,4.78,5.16,0,2.35-2,4.52-5.26,4.52a7.33,7.33,0,0,1-5-1.78C40.86,29.1,40.75,29,41,28.62Z"></path><path class="cls-1" d="M64.53,14.64a8.23,8.23,0,1,1-8.21,8.25A8.21,8.21,0,0,1,64.53,14.64Zm0,13.48a5.26,5.26,0,1,0-5.24-5.23A5.26,5.26,0,0,0,64.53,28.12Z"></path><path class="cls-1" d="M78.94,15.31a.44.44,0,0,1,.43-.44h2.11a.46.46,0,0,1,.43.44V28.12h5.83a.44.44,0,0,1,.43.44v1.87a.43.43,0,0,1-.43.43H79.37a.43.43,0,0,1-.43-.43Z"></path><path class="cls-1" d="M93.67,15.31a.46.46,0,0,1,.44-.44h2.12a.46.46,0,0,1,.44.44V30.43a.45.45,0,0,1-.44.43H94.11a.45.45,0,0,1-.44-.43Z"></path><path class="cls-1" d="M104,15.31a.44.44,0,0,1,.41-.44h5.42a8,8,0,1,1,0,16h-5.42a.43.43,0,0,1-.41-.43Zm5.55,12.77a5,5,0,0,0,5.14-5.24,5,5,0,0,0-5.14-5.2H107V28.08Z"></path><path class="cls-1" d="M124.08,15.31a.44.44,0,0,1,.43-.44h2.11a.46.46,0,0,1,.43.44V28.12h5.82a.44.44,0,0,1,.44.44v1.87a.43.43,0,0,1-.44.43h-8.36a.43.43,0,0,1-.43-.43Z"></path><path class="cls-1" d="M138.81,15.31a.46.46,0,0,1,.44-.44h2.12a.46.46,0,0,1,.44.44V30.43a.45.45,0,0,1-.44.43h-2.12a.45.45,0,0,1-.44-.43Z"></path><path class="cls-1" d="M149.16,15.05a.44.44,0,0,1,.44-.41h.57l9.5,10.1h0V15.31a.44.44,0,0,1,.44-.44h2.1a.45.45,0,0,1,.43.44V30.68a.42.42,0,0,1-.43.41h-.55l-9.55-10.48h0v9.82a.43.43,0,0,1-.44.43H149.6a.45.45,0,0,1-.44-.43Z"></path><path class="cls-1" d="M170,15.31a.44.44,0,0,1,.43-.44h9.3a.44.44,0,0,1,.43.44v1.87a.43.43,0,0,1-.43.43H173v3.75h5.64a.45.45,0,0,1,.43.43v1.9a.43.43,0,0,1-.43.43H173v4h6.76a.44.44,0,0,1,.43.44v1.87a.43.43,0,0,1-.43.43h-9.3a.43.43,0,0,1-.43-.43Z"></path><path class="cls-1" d="M185.71,28.62l.82-1.41a.53.53,0,0,1,.78-.16,7.55,7.55,0,0,0,3.45,1.42,1.91,1.91,0,0,0,2.08-1.76c0-1.17-1-2-2.9-2.75-2.15-.86-4.3-2.23-4.3-4.93,0-2,1.51-4.39,5.14-4.39a8,8,0,0,1,4.57,1.53.57.57,0,0,1,.14.76l-.87,1.3a.59.59,0,0,1-.8.27,7.58,7.58,0,0,0-3.17-1.25,1.81,1.81,0,0,0-2,1.6c0,1.07.84,1.8,2.69,2.56,2.22.89,4.78,2.21,4.78,5.16,0,2.35-2,4.52-5.26,4.52a7.33,7.33,0,0,1-5-1.78C185.62,29.1,185.51,29,185.71,28.62Z"></path><path class="cls-2" d="M29.3,16.7h0a5,5,0,0,0-2.64-.58,11.47,11.47,0,0,0-5.76,2C18,19.91,13.5,25.33,12,24.81c-.63-.22-.48-1.09-.12-2l1.24-2.33h0l7-13A5.06,5.06,0,0,0,18,.6h0a5.06,5.06,0,0,0-6.85,2.08L.6,22.45A5.06,5.06,0,0,0,2.68,29.3l.36.17,0,0s3.35,1.79,9-2,6.76-7,7.79-5.93a1.68,1.68,0,0,1,.2,1.81l-.56,1.05h0L11.92,38.56A5.06,5.06,0,0,0,14,45.4h0a5.07,5.07,0,0,0,6.85-2.08L31.39,23.55A5.06,5.06,0,0,0,29.3,16.7Z"></path></svg> 
